REM DIRINDEX 1\2,1\3,1\4,1\5
REM DIRNAME folder01,folder02,folder03,folder04,folder05
TITLE ""
FILE "1800_152.mp3" MP3
  TRACK 01 AUDIO
    TITLE "2:cjc044_4761"
    INDEX 01 00:00:00
  TRACK 02 AUDIO
    TITLE "0:"
    INDEX 01 00:01:48
  TRACK 03 AUDIO
    TITLE "3:cjc044_4762"
    INDEX 01 00:02:26
  TRACK 04 AUDIO
    TITLE "0:"
    INDEX 01 00:03:53
  TRACK 05 AUDIO
    TITLE "4:cjc044_4763"
    INDEX 01 00:04:36
  TRACK 06 AUDIO
    TITLE "0:"
    INDEX 01 00:06:14
  TRACK 07 AUDIO
    TITLE "2:cjc044_4764"
    INDEX 01 00:07:72
  TRACK 08 AUDIO
    TITLE "0:"
    INDEX 01 00:09:20
  TRACK 09 AUDIO
    TITLE "3:cjc044_4765"
    INDEX 01 00:10:14
  TRACK 10 AUDIO
    TITLE "0:"
    INDEX 01 00:11:09
  TRACK 11 AUDIO
    TITLE "4:cjc044_4766"
    INDEX 01 00:12:03
  TRACK 12 AUDIO
    TITLE "0:"
    INDEX 01 00:13:30
  TRACK 13 AUDIO
    TITLE "2:cjc044_4767"
    INDEX 01 00:15:21
  TRACK 14 AUDIO
    TITLE "0:"
    INDEX 01 00:16:36
  TRACK 15 AUDIO
    TITLE "3:cjc044_4768"
    INDEX 01 00:17:20
  TRACK 16 AUDIO
    TITLE "0:"
    INDEX 01 00:18:27
  TRACK 17 AUDIO
    TITLE "4:cjc044_4769"
    INDEX 01 00:19:20
  TRACK 18 AUDIO
    TITLE "0:"
    INDEX 01 00:20:36
  TRACK 19 AUDIO
    TITLE "2:cjc044_4770"
    INDEX 01 00:22:15
  TRACK 20 AUDIO
    TITLE "0:"
    INDEX 01 00:23:24
  TRACK 21 AUDIO
    TITLE "3:cjc044_4771"
    INDEX 01 00:24:00
  TRACK 22 AUDIO
    TITLE "0:"
    INDEX 01 00:25:07
  TRACK 23 AUDIO
    TITLE "4:cjc044_4772"
    INDEX 01 00:25:64
  TRACK 24 AUDIO
    TITLE "0:"
    INDEX 01 00:26:71
  TRACK 25 AUDIO
    TITLE "2:cjc044_4773"
    INDEX 01 00:28:51
  TRACK 26 AUDIO
    TITLE "0:"
    INDEX 01 00:29:72
  TRACK 27 AUDIO
    TITLE "3:cjc044_4774"
    INDEX 01 00:30:54
  TRACK 28 AUDIO
    TITLE "0:"
    INDEX 01 00:32:00
  TRACK 29 AUDIO
    TITLE "4:cjc044_4775"
    INDEX 01 00:32:52
  TRACK 30 AUDIO
    TITLE "0:"
    INDEX 01 00:34:00
  TRACK 31 AUDIO
    TITLE "2:cjc044_4776"
    INDEX 01 00:35:57
  TRACK 32 AUDIO
    TITLE "0:"
    INDEX 01 00:37:03
  TRACK 33 AUDIO
    TITLE "3:cjc044_4777"
    INDEX 01 00:37:56
  TRACK 34 AUDIO
    TITLE "0:"
    INDEX 01 00:38:63
  TRACK 35 AUDIO
    TITLE "4:cjc044_4778"
    INDEX 01 00:39:45
  TRACK 36 AUDIO
    TITLE "0:"
    INDEX 01 00:40:62
  TRACK 37 AUDIO
    TITLE "2:cjc044_4779"
    INDEX 01 00:42:45
  TRACK 38 AUDIO
    TITLE "0:"
    INDEX 01 00:43:68
  TRACK 39 AUDIO
    TITLE "3:cjc044_4780"
    INDEX 01 00:44:46
  TRACK 40 AUDIO
    TITLE "0:"
    INDEX 01 00:45:51
  TRACK 41 AUDIO
    TITLE "4:cjc044_4781"
    INDEX 01 00:46:39
  TRACK 42 AUDIO
    TITLE "0:"
    INDEX 01 00:47:62
  TRACK 43 AUDIO
    TITLE "2:cjc044_4782"
    INDEX 01 00:49:43
  TRACK 44 AUDIO
    TITLE "0:"
    INDEX 01 00:51:18
  TRACK 45 AUDIO
    TITLE "3:cjc044_4783"
    INDEX 01 00:52:06
  TRACK 46 AUDIO
    TITLE "0:"
    INDEX 01 00:53:35
  TRACK 47 AUDIO
    TITLE "4:cjc044_4784"
    INDEX 01 00:54:27
  TRACK 48 AUDIO
    TITLE "0:"
    INDEX 01 00:56:06
  TRACK 49 AUDIO
    TITLE "2:cjc044_4785"
    INDEX 01 00:57:66
  TRACK 50 AUDIO
    TITLE "0:"
    INDEX 01 00:58:71
  TRACK 51 AUDIO
    TITLE "3:cjc044_4786"
    INDEX 01 00:59:61
  TRACK 52 AUDIO
    TITLE "0:"
    INDEX 01 01:00:53
  TRACK 53 AUDIO
    TITLE "4:cjc044_4787"
    INDEX 01 01:01:56
  TRACK 54 AUDIO
    TITLE "0:"
    INDEX 01 01:02:61
  TRACK 55 AUDIO
    TITLE "2:cjc044_4788"
    INDEX 01 01:04:52
  TRACK 56 AUDIO
    TITLE "0:"
    INDEX 01 01:05:71
  TRACK 57 AUDIO
    TITLE "3:cjc044_4789"
    INDEX 01 01:06:59
  TRACK 58 AUDIO
    TITLE "0:"
    INDEX 01 01:07:47
  TRACK 59 AUDIO
    TITLE "4:cjc044_4790"
    INDEX 01 01:08:52
  TRACK 60 AUDIO
    TITLE "0:"
    INDEX 01 01:09:67
  TRACK 61 AUDIO
    TITLE "2:cjc044_4791"
    INDEX 01 01:11:52
  TRACK 62 AUDIO
    TITLE "0:"
    INDEX 01 01:12:71
  TRACK 63 AUDIO
    TITLE "3:cjc044_4792"
    INDEX 01 01:13:59
  TRACK 64 AUDIO
    TITLE "0:"
    INDEX 01 01:14:70
  TRACK 65 AUDIO
    TITLE "4:cjc044_4793"
    INDEX 01 01:15:60
  TRACK 66 AUDIO
    TITLE "0:"
    INDEX 01 01:16:73
  TRACK 67 AUDIO
    TITLE "2:cjc044_4794"
    INDEX 01 01:18:62
  TRACK 68 AUDIO
    TITLE "0:"
    INDEX 01 01:20:12
  TRACK 69 AUDIO
    TITLE "3:cjc044_4795"
    INDEX 01 01:20:69
  TRACK 70 AUDIO
    TITLE "0:"
    INDEX 01 01:22:03
  TRACK 71 AUDIO
    TITLE "4:cjc044_4796"
    INDEX 01 01:22:58
  TRACK 72 AUDIO
    TITLE "0:"
    INDEX 01 01:24:06
  TRACK 73 AUDIO
    TITLE "2:cjc044_4797"
    INDEX 01 01:25:62
  TRACK 74 AUDIO
    TITLE "0:"
    INDEX 01 01:27:04
  TRACK 75 AUDIO
    TITLE "3:cjc044_4798"
    INDEX 01 01:27:63
  TRACK 76 AUDIO
    TITLE "0:"
    INDEX 01 01:29:09
  TRACK 77 AUDIO
    TITLE "4:cjc044_4799"
    INDEX 01 01:29:68
  TRACK 78 AUDIO
    TITLE "0:"
    INDEX 01 01:31:10
  TRACK 79 AUDIO
    TITLE "2:cjc044_4800"
    INDEX 01 01:32:70
  TRACK 80 AUDIO
    TITLE "0:"
    INDEX 01 01:34:05
  TRACK 81 AUDIO
    TITLE "3:cjc044_4801"
    INDEX 01 01:34:59
  TRACK 82 AUDIO
    TITLE "0:"
    INDEX 01 01:36:39
  TRACK 83 AUDIO
    TITLE "4:cjc044_4802"
    INDEX 01 01:37:19
  TRACK 84 AUDIO
    TITLE "0:"
    INDEX 01 01:38:30
  TRACK 85 AUDIO
    TITLE "2:cjc044_4803"
    INDEX 01 01:40:13
  TRACK 86 AUDIO
    TITLE "0:"
    INDEX 01 01:41:42
  TRACK 87 AUDIO
    TITLE "3:cjc044_4804"
    INDEX 01 01:42:35
  TRACK 88 AUDIO
    TITLE "0:"
    INDEX 01 01:43:49
  TRACK 89 AUDIO
    TITLE "4:cjc044_4805"
    INDEX 01 01:44:44
  TRACK 90 AUDIO
    TITLE "0:"
    INDEX 01 01:46:00
  TRACK 91 AUDIO
    TITLE "2:cjc044_4806"
    INDEX 01 01:47:60
  TRACK 92 AUDIO
    TITLE "0:"
    INDEX 01 01:49:24
  TRACK 93 AUDIO
    TITLE "3:cjc044_4807"
    INDEX 01 01:50:09
  TRACK 94 AUDIO
    TITLE "0:"
    INDEX 01 01:51:40
  TRACK 95 AUDIO
    TITLE "4:cjc044_4808"
    INDEX 01 01:52:34
  TRACK 96 AUDIO
    TITLE "0:"
    INDEX 01 01:54:05
